# xmcd
#
# Track frame offsets:
#	150
#	17176
#	38886
#	59497
#	90869
#	106851
#	125695
#	143155
#	161202
#	176286
#	191954
#	206152
#	220656
#	239107
#	252592
#
# Disc length: 3577 seconds
#
# Revision: 1
# Processed by: cddbd v1.5.2PL0 Copyright (c) Steve Scherf et al.
# Submitted via: audiograbber 1.83.01
#
DISCID=e10df70f
DTITLE=Guilherme e Santiago - E Pra Sempre Te Amar
DYEAR=2006
DGENRE=Country
TTITLE0=Alô meu Povo
TTITLE1=Azul
TTITLE2=Onosso Amor
TTITLE3=Medley
TTITLE4=Hábito
TTITLE5=Chovendo Estrela
TTITLE6=Som e Imagem
TTITLE7=E Pra Sempre Te Amar
TTITLE8=Magia e Mistério
TTITLE9=Franguinho Na Panela
TTITLE10=Gosto De Mulher, Meu Amigo De Pingo
TTITLE11=Peão Não Chora
TTITLE12=Fron This In Monment On
TTITLE13=Ainda Ontem Chorei de Saudade
TTITLE14=Pra Que Chorar
EXTD=
EXTT0=
EXTT1=
EXTT2=
EXTT3=
EXTT4=
EXTT5=
EXTT6=
EXTT7=
EXTT8=
EXTT9=
EXTT10=
EXTT11=
EXTT12=
EXTT13=
EXTT14=
PLAYORDER=
